<svg xmlns="http://www.w3.org/2000/svg" viewBox="0 0 616 338" width="616" height="338" font-family="Helvetica, Arial, sans-serif">
  <rect x="0.5" y="0.5" width="615" height="337" rx="6" fill="#fcfcf8" stroke="#d8d8d0"/>
  <text x="24" y="34" font-size="17" font-weight="700" fill="#22262b">The plank</text>
  <rect x="12" y="48" width="296" height="250" rx="5" fill="#ffffff" stroke="#d8d8d0"/>
  <line x1="28" y1="280" x2="292" y2="280" stroke="#8b9099" stroke-width="1.4"/>
  <g transform="translate(40.0, 14)">
  <g stroke="#2f7d4f" stroke-width="4.2" fill="none" stroke-linecap="round" stroke-linejoin="round">
    <path d="M 56 166 L 66 170 L 136 188 L 206 206"/>
    <path d="M 66 170 L 62 216 L 34 216"/>
    <path d="M 206 206 L 218 224"/>
  </g>
  <circle cx="44" cy="162" r="13" fill="#fcfcf8" stroke="#2f7d4f" stroke-width="4.2"/>
  <line x1="66" y1="170" x2="206" y2="206" stroke="#2f7d4f" stroke-width="1.8" stroke-dasharray="5 5" stroke-linecap="round"/>
  </g>
  <g stroke="#2f7d4f" stroke-width="3" fill="none" stroke-linecap="round" stroke-linejoin="round"><circle cx="36" cy="70" r="11"/><path d="M 31 70 L 35 75 L 42 65"/></g>
  <text x="56" y="75" font-size="13.5" fill="#2f7d4f" text-anchor="start" font-weight="700">Like this</text>
  <text x="160.0" y="324" font-size="13" fill="#4a4f56" text-anchor="middle" font-weight="400">Straight from the head to the heels</text>
  <rect x="320" y="48" width="296" height="250" rx="5" fill="#ffffff" stroke="#d8d8d0"/>
  <line x1="336" y1="280" x2="600" y2="280" stroke="#8b9099" stroke-width="1.4"/>
  <g transform="translate(348.0, 14)">
  <g stroke="#c0392b" stroke-width="4.2" fill="none" stroke-linecap="round" stroke-linejoin="round">
    <path d="M 56 180 L 66 184 L 132 146 L 206 206"/>
    <path d="M 66 184 L 62 216 L 34 216"/>
    <path d="M 206 206 L 218 224"/>
  </g>
  <circle cx="44" cy="176" r="13" fill="#fcfcf8" stroke="#c0392b" stroke-width="4.2"/>
  <line x1="66" y1="184" x2="206" y2="206" stroke="#c0392b" stroke-width="1.8" stroke-dasharray="5 5" stroke-linecap="round"/>
    <text x="132" y="132" font-size="12" fill="#c0392b" text-anchor="middle" font-weight="700">backside up</text>
  </g>
  <g stroke="#c0392b" stroke-width="3" fill="none" stroke-linecap="round"><circle cx="344" cy="70" r="11"/><path d="M 339 65 L 349 75 M 349 65 L 339 75"/></g>
  <text x="364" y="75" font-size="13.5" fill="#c0392b" text-anchor="start" font-weight="700">Not this</text>
  <text x="468.0" y="324" font-size="13" fill="#4a4f56" text-anchor="middle" font-weight="400">Backside up in the air</text>
</svg>
